<svg width="10" height="17" viewBox="0 0 10 17" fill="none" xmlns="http://www.w3.org/2000/svg">
<path d="M0.444114 0.447256C0.303332 0.588109 0.191641 0.755415 0.115433 0.939598C0.0392265 1.12378 0 1.32122 0 1.52062C0 1.72002 0.0392265 1.91747 0.115433 2.10165C0.191641 2.28583 0.303332 2.45314 0.444114 2.59399L6.33639 8.50133L0.444114 14.4087C0.160165 14.6933 0.000643035 15.0794 0.000643035 15.482C0.000643035 15.8846 0.160165 16.2707 0.444114 16.5554C0.728064 16.8401 1.11318 17 1.51475 17C1.91631 17 2.30143 16.8401 2.58538 16.5554L9.55589 9.56708C9.69667 9.42623 9.80836 9.25892 9.88457 9.07474C9.96078 8.89056 10 8.69311 10 8.49371C10 8.29431 9.96078 8.09687 9.88457 7.91269C9.80836 7.7285 9.69667 7.5612 9.55589 7.42035L2.58538 0.43203C2.0083 -0.146523 1.03638 -0.146523 0.444114 0.447256Z" fill="#04B2E7"/>
</svg>
