<svg width="28" height="28" viewBox="0 0 28 28" fill="none" xmlns="http://www.w3.org/2000/svg">
<rect width="28" height="27.44" fill="white"/>
<path d="M9.44411 5.44726C9.30333 5.58811 9.19164 5.75542 9.11543 5.9396C9.03923 6.12378 9 6.32122 9 6.52062C9 6.72002 9.03923 6.91747 9.11543 7.10165C9.19164 7.28583 9.30333 7.45314 9.44411 7.59399L15.3364 13.5013L9.44411 19.4087C9.16016 19.6933 9.00064 20.0794 9.00064 20.482C9.00064 20.8846 9.16016 21.2707 9.44411 21.5554C9.72806 21.8401 10.1132 22 10.5147 22C10.9163 22 11.3014 21.8401 11.5854 21.5554L18.5559 14.5671C18.6967 14.4262 18.8084 14.2589 18.8846 14.0747C18.9608 13.8906 19 13.6931 19 13.4937C19 13.2943 18.9608 13.0969 18.8846 12.9127C18.8084 12.7285 18.6967 12.5612 18.5559 12.4203L11.5854 5.43203C11.0083 4.85348 10.0364 4.85348 9.44411 5.44726Z" fill="#04B2E7"/>
</svg>
