<svg width="70" height="70" viewBox="0 0 70 70" fill="none" xmlns="http://www.w3.org/2000/svg">
<path d="M0 0H70V70H0V0Z" fill="#484FA0"/>
<path fill-rule="evenodd" clip-rule="evenodd" d="M12.8333 27.833C12.8333 23.4147 16.415 19.833 20.8333 19.833H50.3333C54.7515 19.833 58.3333 23.4147 58.3333 27.833V30.6987H58.3332C55.3327 30.6987 52.9003 33.131 52.9003 36.1315C52.9003 39.132 55.3327 41.5644 58.3332 41.5644H58.3333V44.43C58.3333 48.8483 54.7515 52.43 50.3333 52.43H20.8333C16.415 52.43 12.8333 48.8483 12.8333 44.43V41.3932C13.2673 41.5049 13.7224 41.5644 14.1914 41.5644C17.1919 41.5644 19.6242 39.132 19.6242 36.1315C19.6242 33.131 17.1919 30.6987 14.1914 30.6987C13.7224 30.6987 13.2673 30.7581 12.8333 30.8698V27.833Z" fill="white"/>
<path d="M35.5832 24.5869L38.0989 32.3295H46.24L39.6537 37.1147L42.1694 44.8574L35.5832 40.0722L28.9969 44.8574L31.5126 37.1147L24.9264 32.3295H33.0674L35.5832 24.5869Z" fill="#139ED9"/>
</svg>
